<svg xmlns="http://www.w3.org/2000/svg" viewBox="0 0 16 16" style="background:#1B1B1B">
  <rect width="16" height="16" fill="#1B1B1B"/>
  <path fill="#A3DAF5" d="m1.959 3.639-.123 2.168h-.762l.006-2.075V3h.879v.639Zm2.092 0-.123 2.168h-.756l.006-2.075V3h.879l-.006.639ZM9.593 12a1.257 1.257 0 0 1-.106-.305 4.017 4.017 0 0 1-.053-.386 2.913 2.913 0 0 1-.808.568 2.82 2.82 0 0 1-.522.176 2.564 2.564 0 0 1-.586.064c-.336 0-.64-.049-.914-.146a2.073 2.073 0 0 1-.685-.399 1.719 1.719 0 0 1-.446-.586 1.825 1.825 0 0 1-.152-.744c0-.348.069-.652.205-.914.14-.262.338-.48.592-.656.254-.172.559-.3.914-.387.36-.086.76-.129 1.201-.129h1.184v-.498c0-.191-.035-.363-.106-.515a1.13 1.13 0 0 0-.299-.393 1.399 1.399 0 0 0-.474-.246 2.039 2.039 0 0 0-.621-.088 1.91 1.91 0 0 0-.58.082c-.168.055-.31.127-.428.217a.987.987 0 0 0-.275.322.82.82 0 0 0-.094.381H5.45c.004-.23.063-.457.176-.68.117-.222.285-.424.504-.603.215-.176.476-.319.785-.428.312-.11.666-.164 1.06-.164.36 0 .694.045 1.002.135.309.086.576.216.803.392.223.18.399.403.527.668.13.266.194.576.194.932v2.947c0 .211.02.436.058.674.04.234.094.44.164.615V12h-1.13Zm-1.916-.826c.21 0 .408-.027.591-.082.184-.055.352-.127.504-.217.149-.09.278-.191.387-.305.11-.117.195-.238.258-.363V8.924H8.409c-.375 0-.703.033-.984.1-.278.062-.498.16-.662.292a.962.962 0 0 0-.27.334 1.05 1.05 0 0 0-.088.44c0 .156.026.3.076.433a.912.912 0 0 0 .24.34c.106.098.239.174.399.229.16.054.346.082.557.082Zm5.096-7.535-.123 2.168h-.762l.006-2.075V3h.879v.639Zm2.092 0-.123 2.168h-.756l.006-2.075V3h.879l-.006.639Z"/>
</svg>
